<?xml version="1.0" encoding="UTF-8" standalone="no"?>
<svg
   width="429.00000000000006"
   height="65.90314094667463"
   viewBox="0 0 370.40284360189577 56.901423797074145"
   class="css-1j8o68f"
   version="1.1"
   id="svg5"
   sodipodi:docname="logo.svg"
   inkscape:export-filename="logo.webp"
   inkscape:export-xdpi="300"
   inkscape:export-ydpi="300"
   inkscape:version="1.3 (0e150ed6c4, 2023-07-21)"
   xmlns:inkscape="http://www.inkscape.org/namespaces/inkscape"
   xmlns:sodipodi="http://sodipodi.sourceforge.net/DTD/sodipodi-0.dtd"
   xmlns="http://www.w3.org/2000/svg"
   xmlns:svg="http://www.w3.org/2000/svg">
  <sodipodi:namedview
     id="namedview5"
     pagecolor="#ffffff"
     bordercolor="#666666"
     borderopacity="1.0"
     inkscape:showpageshadow="2"
     inkscape:pageopacity="0.0"
     inkscape:pagecheckerboard="0"
     inkscape:deskcolor="#d1d1d1"
     showgrid="false"
     inkscape:zoom="2.2191142"
     inkscape:cx="214.5"
     inkscape:cy="33.121324"
     inkscape:window-width="1728"
     inkscape:window-height="1011"
     inkscape:window-x="0"
     inkscape:window-y="0"
     inkscape:window-maximized="1"
     inkscape:current-layer="svg5" />
  <defs
     id="SvgjsDefs3014" />
  <g
     id="SvgjsG3015"
     featurekey="symbolFeature-0"
     transform="matrix(0.905781090259552,0,0,0.905781090259552,-3.204203758338183,-15.029152306378347)"
     fill="#ff8264"
     style="fill:#d35f5f;fill-opacity:1">
    <g
       id="g3"
       style="fill:#d35f5f;fill-opacity:1">
      <path
         d="M82.66792,48.17386a15.48859,15.48859,0,0,0-5.90432.62934l-2.01955-4.63a16.31922,16.31922,0,0,1,8.47935.45725c3.069,1.20246,7.579,2.65141,10.19178,2.7766a.5.5,0,0,0,.31661-.90483c-.2958-.21313-7.31306-5.22366-14.00753-5.54442a19.54942,19.54942,0,0,0-6.155.5223l-.39272-.90044c1.16559-2.03933,2.12135-3.676,2.50478-4.33009l.98325.23978a.48853.48853,0,0,0,.09466.01382.49965.49965,0,0,0,.43721-.2181l1.76046-2.58423a4.15552,4.15552,0,0,0,1.97049-2.36641.50053.50053,0,0,0-.03174-.34762L75.5233,19.7647l.07281-1.51974a.50049.50049,0,0,0-.46379-.5228c-3.56836-.2487-4.56787,1.3904-4.60935,1.46027a.49943.49943,0,0,0-.05979.35008L72.23,28.517,68.5306,30.37016l-1.04336-2.07648a.49931.49931,0,0,0-.66578-.225l-.67633.32946L65.0015,26.32431a.50249.50249,0,0,0-.29559-.23805l-.90043-.26691.08512-.31624a.4993.4993,0,0,0-.35245-.6123l-3.97771-1.071a.48753.48753,0,0,0-.37975.04926.50135.50135,0,0,0-.233.30316L58.51947,25.763a.49954.49954,0,0,0,.35242.61278l3.9777,1.07149a.49917.49917,0,0,0,.6128-.35292l.08319-.309.67919.20131,1.02011,1.85-.61721.30064a.50037.50037,0,0,0-.22068.688l1.11119,2.047-3.287,1.26821-1.70288.1071a1.93648,1.93648,0,0,0,.33547-1.69634c-.135-.28315-.45861-.61054-1.26425-.5895-2.08749.06674-4.94,2.25395-5.10565,2.38246l-.00006-.00006c-5.449,4.07836-9.12419,5.96761-15.27094,5.67309-4.22075-.20223-16.45735-2.95851-16.5802-2.98591-.01619-.00383-.03136.00534-.04757.00316l.00154-.01172a124.17507,124.17507,0,0,0-15.04232-.06765.95591.95591,0,0,0-.72794,1.01124c.043.42882.44728,1.44885,3.25944,1.65594A33.63536,33.63536,0,0,1,16.635,39.84317l-9.86942-.49569-.001,0a.49936.49936,0,0,0-.41214.18459l-.88277,1.08888-1.2768-.06118a.4997.4997,0,0,0-.52335.4755l-.13143,2.74294a.49972.49972,0,0,0,.4755.52336l1.35946.06514,1.23327,1.04851a.50012.50012,0,0,0,.29985.11849c.00927.00044.01807.00037.02736.00033.09975-.0006,9.96344-.06864,11.46172.00315l.019.00091a4.55621,4.55621,0,0,0,2.55161-.75075c.43211,1.0807.90815,2.35152,1.37445,3.637-.41655-.07031-.83469-.13673-1.2628-.17362a15.60681,15.60681,0,0,0-2.68136,31.09823q.30157.02617.6008.04052A15.48856,15.48856,0,0,0,35.29741,62.86276l.95993-.18675,1.13239.91834-.6674,1.98205a.50041.50041,0,0,0,.251.60744,11.19422,11.19422,0,0,0,4.1338.813c.30289.014.62365.02255.96144.0226,1.04806.00036,2.65906.03551,4.45171.075,3.81239.08344,8.557.1871,10.3634.00088,2.56388-.26334,4.154-1.56666,5.31769-4.35792A30.99222,30.99222,0,0,0,63.688,58.13145c.25582-.45862,2.0032-3.60638,4.53147-8.53369.78767-1.53468,1.7582-3.32139,2.73991-5.08753l2.50557,5.74363a15.598,15.598,0,0,0,6.52162,29.01823q.30525.02635.60909.04091a15.607,15.607,0,0,0,2.07228-31.13914ZM62.62685,26.3518l-3.012-.81158.16829-.625,3.012.8111ZM30.27553,64.70827A10.57759,10.57759,0,1,1,20.23266,53.233q.20631.00989.41273.02759a10.56374,10.56374,0,0,1,3.752,1.0468c.22682.66952.36954,1.09731.37578,1.11613a.49994.49994,0,0,0,.37079.3316l1.90323.40326a10.74906,10.74906,0,0,1,.78391.83174,10.56705,10.56705,0,0,1,1.87543,3.29171l-5.5517,1.10293a5.08227,5.08227,0,0,0-.56582-.82551,5.03391,5.03391,0,1,0-4.28478,8.25557c.06572.00559.131.01018.19685.01334a4.99149,4.99149,0,0,0,5.11983-3.88857l5.68733-1.10634C30.30683,64.124,30.30081,64.41538,30.27553,64.70827ZM17.33742,65.81933a.499.499,0,0,0,.47113.43076.51513.51513,0,0,0,.11919-.00847l5.59346-1.08809a3.99158,3.99158,0,0,1-4.13113,2.66526,4.03418,4.03418,0,0,1,.53818-8.0489q.07682.00369.155.01036a3.73474,3.73474,0,0,1,3.01075,1.8153L17.38524,62.7297a.49991.49991,0,0,0-.39782.55924Zm13.362-5.73474A11.54065,11.54065,0,0,0,28.83012,56.653l3.76675,3.05462Zm-12.44407,5.0743-.21315-1.54028,15.56474-3.09187,1.63695,1.32742Zm15.35679-5.91517-2.82841-2.29358,2.05361.43515A14.546,14.546,0,0,1,33.61212,59.24372Zm29.273-1.72617-4.27947,1.08452c-.93915-.56953-5.29225-3.21254-6.37811-3.89322a50.64382,50.64382,0,0,0-6.85863-3.59751,8.55371,8.55371,0,0,0-2.09306-.38088,4.076,4.076,0,0,0-4.15557,2.17177c-.9307,1.87606-1.8085,3.6173-2.16979,4.33227L25.63137,54.836c-.49821-1.48795-2.84559-8.44665-4.28924-11.75l3.67746-3.21195c1.96534.7101,13.13808,4.74457,14.63651,5.25192.15683.053.31535.11142.47725.1705,1.58421.5843,3.55669,1.30844,6.52267-1.46,2.993-2.79257,8.83317-7.43342,8.89161-7.48a.4994.4994,0,0,0,.1794-.48953l-.38119-1.91008c.712-.51535,2.81916-1.94886,4.286-1.99541.05191-.00191.09685-.00122.13538.00062a1.72821,1.72821,0,0,1,.194.02249,3.275,3.275,0,0,1-.837,1.50219.50007.50007,0,0,0,.41019.82527l2.83649-.17842a.51209.51209,0,0,0,.1487-.03247l3.2652-1.25972c1.27007.46806,6.83007,2.51043,8.8919,3.145-1.15113,1.96718-5.03019,8.64172-7.34652,13.15517C64.9809,53.719,63.30721,56.7571,62.88508,57.51755Zm9.67349-15.853L81.9149,63.11442l-1.41473.76568L71.572,43.41311C71.90629,42.817,72.23663,42.23147,72.55857,41.66451Zm7.24251,23.11432a.4994.4994,0,0,0,.29539.27275.509.509,0,0,0,.139.0267.49792.49792,0,0,0,.26195-.05979l2.2975-1.24352a.49986.49986,0,0,0,.22031-.63961l-1.5013-3.44176.00269-.00011c.05219.0025.10482.006.1574.01047a4.04689,4.04689,0,1,1-3.4529,1.453Zm-2.00933-4.60621a4.97907,4.97907,0,0,0-1.47961,3.11819,5.03891,5.03891,0,0,0,4.58242,5.44772c.06475.00555.12906.0101.19344.01318a5.03351,5.03351,0,1,0-.0003-10.03544l-2.29623-5.26406a10.56063,10.56063,0,0,1,3.032-.29547q.20631.00989.41273.02759a10.5788,10.5788,0,1,1-7.71861,2.44443,10.73342,10.73342,0,0,1,.97691-.72226ZM79.6764,41.95667c4.37048.20941,9.02648,2.61127,11.55891,4.12678a52.9654,52.9654,0,0,1-7.64663-2.38383,16.738,16.738,0,0,0-9.24661-.44782l-.36745-.84252A19.0768,19.0768,0,0,1,79.6764,41.95667ZM71.48984,19.57144a4.10462,4.10462,0,0,1,3.08347-.87443l-.0549,1.14566a.49649.49649,0,0,0,.04864.23991l4.92937,10.29758-6.2691-1.97387Zm1.34772,9.76007,6.93277,2.18287a3.10286,3.10286,0,0,1-1.37664,1.35193.49533.49533,0,0,0-.1918.16679L76.565,35.436,75.557,35.19024l-.00228.00948c-.01691-.00417-.03012-.01678-.0476-.0192-.52677-.07315-5.09369-1.707-8.469-2.94386Zm-6.02211-.14758.821,1.63413-1.22047.61135-.88042-1.62193ZM39.175,40.01606c6.16382.29534,10.08257-1.586,15.28209-5.40327l.22972,1.151c-1.13656.90807-6.03967,4.84687-8.71342,7.34188-2.51616,2.34858-4.02981,1.79161-5.495,1.25261-.17-.0629-.33673-.12417-.50173-.18-1.53958-.52082-13.78685-4.94437-14.82014-5.31817a7.66577,7.66577,0,0,1-1.50122-1.58025C26.90817,37.99306,35.6283,39.84612,39.175,40.01606Zm-31.356-3.097a135.42362,135.42362,0,0,1,14.41812.06933,12.24026,12.24026,0,0,0,1.89764,2.3308l-1.92019,1.6773a32.5747,32.5747,0,0,0-12.05556-3.37186C8.33378,37.49072,7.84434,36.98283,7.819,36.91905Zm9.76148,3.97283-.17357,3.62255c-2.09687-.0258-6.338-.00561-8.73993.00878L8.862,40.454ZM5.09153,43.352l-.53064-.02542.08357-1.7441.53064.02543Zm.98669.30178.11183-2.334.77931-.96093.89389.0449-.19768,4.1257-.553.00363Zm12.38393.8854-.00537-.00026-.04977-.00178.17225-3.59511,1.35371.068q.756.32276,1.47146.69409l-.99794.87169a.49972.49972,0,0,0-.12619.583c.0949.20907.19525.43941.29965.68621A3.65129,3.65129,0,0,1,18.46215,44.53921ZM34.28993,65.0546A14.60706,14.60706,0,1,1,20.42841,49.209c.18679.00895.37538.02141.56329.03775a14.62776,14.62776,0,0,1,1.74069.26684c.45463,1.27389.87948,2.49716,1.22489,3.50362A11.57838,11.57838,0,1,0,18.742,75.33447c.15091.0131.301.02322.4517.03044A11.57787,11.57787,0,0,0,31.27159,64.79413q.0501-.58072.04264-1.15651l2.99494-.58262A14.59554,14.59554,0,0,1,34.28993,65.0546Zm12.25236,1.03974c-1.80145-.03939-3.42028-.07442-4.4737-.075a13.601,13.601,0,0,1-4.24583-.57642l.62579-1.85841a.49959.49959,0,0,0-.159-.54779l-1.75888-1.42633-.00123-.00623-.00524.001-1.5769-1.27872c-.004-.01748-.01-.0342-.014-.05163a40.0379,40.0379,0,0,0,7.64418-2.18163,6.90644,6.90644,0,0,1,2.98666-.76174,22.88668,22.88668,0,0,1,5.75724,1.87388c.94227.38593,1.91331.777,2.88758,1.14158l-2.42062,5.8433C50.08384,66.17189,48.22232,66.13121,46.54229,66.09434Zm10.239.00664c-.80218.08256-2.23512.10488-3.91375.09735L55.147,60.69528l5.90961,2.13483A4.92867,4.92867,0,0,1,56.78125,66.101Zm4.67212-4.191-6.41586-2.31735c-1.11866-.4041-2.24678-.86585-3.33746-1.31309a23.244,23.244,0,0,0-6.07153-1.94613,7.85615,7.85615,0,0,0-3.40865.8256A39.15331,39.15331,0,0,1,34.67,59.30669a15.55239,15.55239,0,0,0-.5968-1.6595l3.046.64543a.49424.49424,0,0,0,.54935-.26307s1.12882-2.22587,2.34743-4.68306c1.14335-2.30486,4.15667-1.56213,5.05248-1.28163A50.34458,50.34458,0,0,1,51.69612,55.556c1.22158.76589,6.56952,4.00993,6.56952,4.00993a.49915.49915,0,0,0,.38247.057l3.87975-.98317A31.38846,31.38846,0,0,1,61.45337,61.90994ZM90.73,74.90089a14.60293,14.60293,0,1,1-16.863-23.72518l1.22338,2.80456a11.72419,11.72419,0,0,0-1.21662.88291,11.578,11.578,0,0,0,6.45855,20.395c.14945.013.29757.02306.44633.03018a11.57757,11.57757,0,1,0-2.38893-22.75705l-1.219-2.79457a14.48249,14.48249,0,0,1,4.84894-.6045c.18631.00893.37487.02187.56232.0377a14.6068,14.6068,0,0,1,8.148,25.731Z"
         id="path1"
         style="fill:#d35f5f;fill-opacity:1" />
      <path
         d="M52.13635,62.32455a2.89209,2.89209,0,1,0-3.02719,2.75036A2.89533,2.89533,0,0,0,52.13635,62.32455ZM49.157,64.07605a1.89209,1.89209,0,1,1,1.98048-1.79936A1.894,1.894,0,0,1,49.157,64.07605Z"
         id="path2"
         style="fill:#d35f5f;fill-opacity:1" />
      <path
         d="M62.28856,38.55419l-.39563-.10891c-.73495-.20973-1.96285-.558-2.81243.074a2.30538,2.30538,0,0,0-.788,1.92836c-.038,2.39448-.41973,8.77024-.42379,8.83457a.50062.50062,0,0,0,.30786.49186L61.47477,51.141a.682.682,0,0,0,.24325.05516.82374.82374,0,0,0,.43069-.10255c.53575-.28523.90214-1.10653,1.15385-2.58495.4486-2.63926.82624-7.33751.867-8.1881C64.22917,39.07637,63.15342,38.78676,62.28856,38.55419Zm.02772,9.787a4.00827,4.00827,0,0,1-.58839,1.82256l-2.84-1.17731c.08151-1.38489.37148-6.43686.404-8.52314a1.40577,1.40577,0,0,1,.38516-1.14157c.45324-.33856,1.385-.073,2.03651.11225l.31558.086c.98889.26589,1.15947.37868,1.14155.75276C63.13053,41.11108,62.75807,45.74212,62.31628,48.34114Z"
         id="path3"
         style="fill:#d35f5f;fill-opacity:1" />
    </g>
  </g>
  <g
     id="SvgjsG3016"
     featurekey="nameFeature-0"
     transform="matrix(1.193358063697815,0,0,1.193358063697815,100.94258304920623,-13.842953958134498)"
     fill="#ff8264"
     style="fill:#d35f5f;fill-opacity:1">
    <path
       d="M20.2 36.56 l0.24 3.44 l-17.04 0 l0 -28 l16.24 0 l0.28 3.44 l-12.92 0 l0 6.84 l8.76 0 l0 3.44 l-8.76 0 l0 10.84 l13.2 0 z M44.8 40 l-4.2 0 l-6.48 -10.64 l-6.52 10.64 l-4.24 0 l8.64 -14.08 l-8.52 -13.92 l4.2 0 l6.4 10.48 l6.44 -10.48 l4.2 0 l-8.52 13.92 z M59.96 12 c6.56 0 9.64 4.96 9.64 10.2 s-3.08 10.2 -9.64 10.2 l-7 0 l0 7.6 l-3.6 0 l0 -28 l10.6 0 z M59.8 28.96 c3.68 0 6.12 -2.84 6.12 -6.76 s-2.44 -6.76 -6.12 -6.76 l-6.84 0 l0 13.52 l6.84 0 z M92.04 36.56 l0.24 3.44 l-17.04 0 l0 -28 l16.24 0 l0.28 3.44 l-12.92 0 l0 6.84 l8.76 0 l0 3.44 l-8.76 0 l0 10.84 l13.2 0 z M107.08000000000001 12 c9.28 0 14.4 5.68 14.4 14 s-5.12 14 -14.4 14 l-9.6 0 l0 -28 l9.6 0 z M107.28000000000002 36.56 c6.8 0 10.6 -4.24 10.6 -10.56 c0 -6.36 -3.8 -10.56 -10.6 -10.56 l-6.2 0 l0 21.12 l6.2 0 z M127.16000000000003 40 l0 -28 l3.6 0 l0 28 l-3.6 0 z M155 15.440000000000001 l-8.16 0 l0 24.56 l-3.6 0 l0 -24.56 l-8.2 0 l0.24 -3.44 l19.48 0 z M159.36 40 l0 -28 l3.6 0 l0 28 l-3.6 0 z M182.95999999999998 40.4 c-8 0 -14.36 -6.4 -14.36 -14.4 s6.36 -14.4 14.36 -14.4 s14.36 6.4 14.36 14.4 s-6.36 14.4 -14.36 14.4 z M182.95999999999998 36.96 c6.08 0 10.64 -4.76 10.64 -10.96 s-4.56 -10.96 -10.64 -10.96 c-6.12 0 -10.68 4.76 -10.68 10.96 s4.56 10.96 10.68 10.96 z M222.2 12 l3.6 0 l0 28.4 l-0.44 0 l-18.8 -19.96 l0 19.56 l-3.56 0 l0 -28.4 l0.4 0 l18.8 19.96 l0 -19.56 z"
       id="path4"
       style="fill:#d35f5f;fill-opacity:1" />
  </g>
  <g
     id="SvgjsG3017"
     featurekey="sloganFeature-0"
     transform="matrix(0.48797112703323364,0,0,0.48797112703323364,104.85678038164562,45.22185824912381)"
     fill="#ff8264"
     style="fill:#d35f5f;fill-opacity:1">
    <path
       d="M11.27 20 l-1.0254 -2.9102 l-5.9277 0 l-1.0254 2.9102 l-2.998 0 l5.1953 -14.111 l3.584 0 l5.1953 14.111 l-2.998 0 z M5.1758 14.6387 l4.209 0 l-2.0996 -5.9863 z M28.8916296875 20 l0 -14.111 l5.1074 0 c4.502 0 6.7285 2.832 6.7285 7.0508 c0 4.2285 -2.2266 7.0605 -6.7285 7.0605 l-5.1074 0 z M31.8213296875 17.4121 l2.0313 0 c2.5977 0 3.7891 -1.6211 3.7891 -4.4727 s-1.1914 -4.4727 -3.7891 -4.4727 l-2.0313 0 l0 8.9453 z M64.951390625 5.888999999999999 l3.1152 0 l-5.2148 14.111 l-3.2227 0 l-5.1855 -14.111 l3.1055 0 l3.7012 10.693 z M116.562453125 20 l-2.9199 0 l-0.92773 -10.635 l-3.5742 10.635 l-1.8945 0 l-3.5742 -10.635 l-0.9375 10.635 l-2.9297 0 l1.1816 -14.111 l4.1797 0 l3.0078 8.8574 l3.0469 -8.8574 l4.1797 0 z M141.5776171875 20 l-1.0254 -2.9102 l-5.9277 0 l-1.0254 2.9102 l-2.998 0 l5.1953 -14.111 l3.584 0 l5.1953 14.111 l-2.998 0 z M135.4834171875 14.6387 l4.209 0 l-2.0996 -5.9863 z M165.068346875 5.888999999999999 c2.7637 0 4.4824 2.0508 4.4824 4.5605 c0 2.5684 -1.7188 4.4922 -4.4824 4.4922 l-2.9395 0 l0 5.0586 l-2.9297 0 l0 -14.111 l5.8691 0 z M164.580046875 12.4902 c1.4648 0 2.1484 -0.81055 2.1484 -2.0801 c0 -1.2207 -0.68359 -2.0703 -2.1484 -2.0703 l-2.4512 0 l0 4.1504 l2.4512 0 z M189.2041296875 20.19531 c-3.0273 0 -5.3906 -1.4551 -5.8203 -4.1016 l3.0273 -0.69336 c0.19531 1.582 1.3574 2.4023 2.9102 2.4023 c1.1914 0 2.1387 -0.52734 2.1289 -1.7188 c-0.0097656 -1.3281 -1.5723 -1.748 -3.291 -2.2754 c-2.0703 -0.64453 -4.2871 -1.4063 -4.2871 -4.0039 c0 -2.627 2.1484 -4.1113 4.9805 -4.1113 c2.4805 0 4.9805 1.0059 5.5469 3.7109 l-2.832 0.70313 c-0.26367 -1.4063 -1.2109 -2.0215 -2.5391 -2.0215 c-1.1816 0 -2.1875 0.48828 -2.1875 1.6504 c0 1.084 1.3867 1.4453 2.9883 1.9238 c2.1289 0.64453 4.6484 1.4648 4.6484 4.2773 c0 2.998 -2.5098 4.2578 -5.2734 4.2578 z M236.8315234375 20 l-1.0254 -2.9102 l-5.9277 0 l-1.0254 2.9102 l-2.998 0 l5.1953 -14.111 l3.584 0 l5.1953 14.111 l-2.998 0 z M230.7373234375 14.6387 l4.209 0 l-2.0996 -5.9863 z M259.677753125 20.19531 c-3.0957 0 -5.5176 -1.582 -5.5176 -5.1367 l0 -9.1699 l2.9297 0 l0 8.7695 c0 2.1484 1.1426 2.9492 2.5879 2.9492 c1.4551 0 2.6074 -0.81055 2.6074 -2.9492 l0 -8.7695 l2.9297 0 l0 9.1699 c0 3.5547 -2.4316 5.1367 -5.5371 5.1367 z M285.7666296875 20.19531 c-3.0273 0 -5.3906 -1.4551 -5.8203 -4.1016 l3.0273 -0.69336 c0.19531 1.582 1.3574 2.4023 2.9102 2.4023 c1.1914 0 2.1387 -0.52734 2.1289 -1.7188 c-0.0097656 -1.3281 -1.5723 -1.748 -3.291 -2.2754 c-2.0703 -0.64453 -4.2871 -1.4063 -4.2871 -4.0039 c0 -2.627 2.1484 -4.1113 4.9805 -4.1113 c2.4805 0 4.9805 1.0059 5.5469 3.7109 l-2.832 0.70313 c-0.26367 -1.4063 -1.2109 -2.0215 -2.5391 -2.0215 c-1.1816 0 -2.1875 0.48828 -2.1875 1.6504 c0 1.084 1.3867 1.4453 2.9883 1.9238 c2.1289 0.64453 4.6484 1.4648 4.6484 4.2773 c0 2.998 -2.5098 4.2578 -5.2734 4.2578 z M314.433828125 5.888999999999999 l0 2.5781 l-3.3496 0 l0 11.533 l-2.9004 0 l0 -11.533 l-3.3691 0 l0 -2.5781 l9.6191 0 z M336.6064015625 20 l-3.6719 -6.2109 l-0.84961 0 l0 6.2109 l-2.9297 0 l0 -14.111 l5.1172 0 c3.1934 0 4.541 1.8848 4.541 4.2188 c0 1.8945 -1.0742 3.125 -2.9883 3.5352 l4.248 6.3574 l-3.4668 0 z M332.0850015625 8.32 l0 3.3691 l1.7285 0 c1.5625 0 2.1973 -0.66406 2.1973 -1.6797 c0 -1.0059 -0.63477 -1.6895 -2.1973 -1.6895 l-1.7285 0 z M364.170390625 20 l-1.0254 -2.9102 l-5.9277 0 l-1.0254 2.9102 l-2.998 0 l5.1953 -14.111 l3.584 0 l5.1953 14.111 l-2.998 0 z M358.076190625 14.6387 l4.209 0 l-2.0996 -5.9863 z M384.7217203125 17.4121 l4.4238 0 l0 2.5879 l-7.3535 0 l0 -14.111 l2.9297 0 l0 11.523 z M403.886746875 20 l0 -14.111 l2.9297 0 l0 14.111 l-2.9297 0 z M432.4076953125 20 l-1.0254 -2.9102 l-5.9277 0 l-1.0254 2.9102 l-2.998 0 l5.1953 -14.111 l3.584 0 l5.1953 14.111 l-2.998 0 z M426.3134953125 14.6387 l4.209 0 l-2.0996 -5.9863 z"
       id="path5"
       style="fill:#d35f5f;fill-opacity:1" />
  </g>
</svg>
